<svg width="64" height="64" viewBox="0 0 64 64" fill="none" xmlns="http://www.w3.org/2000/svg">
<g clip-path="url(#clip0_201_2)">
<path fill-rule="evenodd" clip-rule="evenodd" d="M17.1113 8.5804C17.0643 8.5804 17.0178 8.57699 16.9721 8.57034H13.6105V8.58034C13.2404 8.58034 12.9403 8.88039 12.9403 9.25046V61.3995C12.9403 61.7696 13.2404 62.0696 13.6105 62.0696H51.337C51.7071 62.0696 52.0071 61.7696 52.0071 61.3995V9.24046C52.0071 8.87039 51.7071 8.57034 51.337 8.57034H48.0259C47.9617 8.5835 47.895 8.5904 47.8266 8.5904C47.7581 8.5904 47.6915 8.5835 47.6272 8.57034H17.2422C17.2006 8.57705 17.1576 8.5804 17.1113 8.5804ZM51.337 6.63H48.7968V2.39933C48.7968 1.6592 48.4668 0.979084 47.8967 0.519004C47.3266 0.0689265 46.5764 -0.101103 45.8663 0.0589248L17.0768 6.63H13.6105C12.1702 6.63 11 7.80021 11 9.24046V61.3895C11 62.8297 12.1702 63.9999 13.6105 63.9999H51.337C52.7773 63.9999 53.9475 62.8297 53.9475 61.3895V9.24046C53.9475 7.80021 52.7773 6.63 51.337 6.63ZM46.8565 2.38933V6.63H25.745L46.2964 1.93925C46.4864 1.89924 46.6164 1.97926 46.6864 2.02927C46.7465 2.07927 46.8565 2.1993 46.8565 2.38933ZM23.8654 32.9718C25.9959 35.4113 29.1276 36.9553 32.612 36.9553C36.1049 36.9553 39.2434 35.4067 41.3743 32.9579C41.4408 32.8979 41.4971 32.831 41.5432 32.7594C43.2165 30.7476 44.224 28.1624 44.224 25.3433C44.224 22.5052 43.1996 19.9011 41.5013 17.8813C41.4711 17.8395 41.4373 17.7997 41.3999 17.7623C39.2696 15.2966 36.122 13.7328 32.6171 13.7313H32.612C29.1246 13.7313 25.9905 15.278 23.8599 17.7212C23.7857 17.7863 23.7236 17.8601 23.6739 17.9397C22.0048 19.9511 21 22.5325 21 25.3433C21 28.1575 22.0072 30.7416 23.6799 32.7541C23.7292 32.834 23.7911 32.9076 23.8654 32.9718ZM40.6323 19.9452C41.5037 21.2352 42.0723 22.7455 42.2354 24.3732H38.723C38.6809 23.3642 38.5735 22.3954 38.4086 21.4815C39.2357 21.0557 39.9862 20.5374 40.6323 19.9452ZM42.2354 26.3135H38.723C38.6809 27.322 38.5736 28.2904 38.4088 29.204C39.2341 29.6273 39.9835 30.1484 40.6327 30.7409C41.5038 29.451 42.0724 27.9409 42.2354 26.3135ZM36.5728 22.249C36.6762 22.9193 36.7476 23.6292 36.7811 24.3732H28.4429C28.4764 23.6302 28.5477 22.9212 28.6508 22.2518C29.8974 22.6533 31.246 22.8629 32.612 22.8629C33.9811 22.8629 35.3327 22.6523 36.5728 22.249ZM26.8141 21.4889C26.65 22.4006 26.5431 23.3669 26.5011 24.3732H22.9887C23.1515 22.7477 23.7188 21.2393 24.5882 19.9504C25.2421 20.5457 25.9941 21.0655 26.8141 21.4889ZM26.5011 26.3135H22.9887C23.1519 27.9436 23.7221 29.456 24.5956 30.7473C25.2458 30.1539 25.9937 29.6355 26.8168 29.2127C26.6511 28.2966 26.5433 27.3252 26.5011 26.3135ZM36.5711 28.4491C36.6754 27.7755 36.7474 27.0617 36.7811 26.3135H28.4429C28.4767 27.0636 28.549 27.7791 28.6537 28.4541C31.1413 27.6653 34.0758 27.6636 36.5711 28.4491ZM25.8409 32.2415C26.6275 33.0137 27.5451 33.6531 28.5567 34.1225C28.0497 33.2852 27.6186 32.2892 27.2828 31.1715C26.7503 31.4834 26.2665 31.8426 25.8409 32.2415ZM29.0607 30.3593C31.2662 29.6025 33.938 29.6023 36.1636 30.3586C35.3639 33.2375 33.9383 35.0124 32.6149 35.015H32.612C31.2879 35.015 29.861 33.2399 29.0607 30.3593ZM37.9427 31.1664C38.4779 31.479 38.9633 31.8386 39.3882 32.2365C38.6005 33.011 37.6811 33.6521 36.6673 34.1225C37.1751 33.284 37.6068 32.2862 37.9427 31.1664ZM36.6673 16.5642C37.6793 17.0338 38.5971 17.6733 39.3839 18.4459C38.961 18.8444 38.4774 19.2061 37.9427 19.5202C37.6068 18.4004 37.1751 17.4027 36.6673 16.5642ZM32.612 15.6717C33.937 15.6717 35.365 17.4492 36.165 20.3332C33.9594 21.0933 31.2853 21.0956 29.0571 20.3402C29.8567 17.4521 31.2859 15.6717 32.612 15.6717ZM28.5567 16.5642C28.0477 17.4047 27.6152 18.4052 27.2789 19.5282C26.7469 19.2154 26.2597 18.855 25.8314 18.4545C26.6201 17.6781 27.541 17.0355 28.5567 16.5642ZM39.3246 55.3385H24.6754C24.2994 55.3385 24 54.9085 24 54.3684C24 53.8283 24.2994 53.3982 24.6754 53.3982H39.3246C39.7006 53.3982 40 53.8283 40 54.3684C40 54.9085 39.6936 55.3385 39.3246 55.3385ZM19 42.1143V48.6504H21.6678C22.3474 48.6504 22.9255 48.5329 23.4019 48.2979C23.8783 48.0629 24.2435 47.704 24.4976 47.2213C24.758 46.7385 24.8882 46.1256 24.8882 45.3824C24.8882 44.6329 24.758 44.0199 24.4976 43.5435C24.2435 43.0608 23.8783 42.7019 23.4019 42.4669C22.9255 42.2318 22.3474 42.1143 21.6678 42.1143H19ZM21.6583 47.4785H20.4196V43.2767H21.6583C21.9441 43.2767 22.1982 43.3212 22.4205 43.4101C22.6428 43.4927 22.827 43.6166 22.9731 43.7817C23.1192 43.9405 23.2304 44.1438 23.3066 44.3915C23.3828 44.6329 23.4209 44.9155 23.4209 45.2395V45.5253C23.4209 45.8492 23.3828 46.1351 23.3066 46.3828C23.2304 46.6242 23.1192 46.8274 22.9731 46.9926C22.827 47.1514 22.6428 47.2721 22.4205 47.3546C22.1982 47.4372 21.9441 47.4785 21.6583 47.4785ZM28.5875 48.7648C28.2064 48.7648 27.8443 48.7267 27.5013 48.6504C27.1583 48.5742 26.8534 48.4535 26.5866 48.2884C26.3262 48.1169 26.1198 47.9041 25.9673 47.65C25.8212 47.3896 25.7482 47.0752 25.7482 46.7068V46.6115C25.7482 46.5734 25.7513 46.5448 25.7577 46.5257H27.1678C27.1615 46.5448 27.1583 46.5702 27.1583 46.6019V46.6877C27.1583 46.891 27.2123 47.0625 27.3203 47.2022C27.4346 47.3419 27.5997 47.4468 27.8157 47.5166C28.0317 47.5865 28.2826 47.6214 28.5684 47.6214C28.7526 47.6214 28.9146 47.6119 29.0543 47.5928C29.2004 47.5674 29.3275 47.5357 29.4354 47.4976C29.5498 47.4531 29.6419 47.4023 29.7118 47.3451C29.788 47.288 29.842 47.2213 29.8737 47.145C29.9118 47.0688 29.9309 46.9831 29.9309 46.8878C29.9309 46.7163 29.8737 46.5765 29.7594 46.4686C29.6514 46.3606 29.499 46.2685 29.3021 46.1923C29.1115 46.116 28.8955 46.0462 28.6542 45.9826C28.4128 45.9191 28.1651 45.8556 27.911 45.7921C27.6569 45.7222 27.4092 45.6396 27.1678 45.5444C26.9264 45.4427 26.7105 45.322 26.5199 45.1823C26.3294 45.0426 26.1769 44.8647 26.0626 44.6487C25.9483 44.4328 25.8911 44.1723 25.8911 43.8675C25.8911 43.5435 25.9578 43.264 26.0912 43.029C26.2309 42.794 26.4246 42.6003 26.6724 42.4478C26.9201 42.2954 27.2059 42.1842 27.5299 42.1143C27.8538 42.0381 28.2064 42 28.5875 42C28.9432 42 29.2798 42.0381 29.5974 42.1143C29.915 42.1842 30.1945 42.2985 30.4359 42.4573C30.6772 42.6161 30.8646 42.8162 30.998 43.0576C31.1378 43.299 31.2076 43.5848 31.2076 43.9151V44.0294H29.8261V43.9532C29.8261 43.7817 29.7753 43.6356 29.6736 43.5149C29.572 43.3942 29.4291 43.299 29.2449 43.2291C29.0607 43.1592 28.8447 43.1243 28.597 43.1243C28.3302 43.1243 28.1015 43.1497 27.911 43.2005C27.7268 43.2513 27.5839 43.3275 27.4822 43.4292C27.387 43.5245 27.3393 43.6388 27.3393 43.7722C27.3393 43.9246 27.3933 44.0517 27.5013 44.1533C27.6156 44.2486 27.7681 44.3343 27.9586 44.4105C28.1555 44.4804 28.3747 44.5439 28.6161 44.6011C28.8574 44.6583 29.1051 44.7218 29.3592 44.7917C29.6133 44.8615 29.861 44.9441 30.1024 45.0394C30.3438 45.1347 30.5597 45.2553 30.7503 45.4014C30.9408 45.5412 31.0933 45.7159 31.2076 45.9255C31.322 46.1351 31.3791 46.386 31.3791 46.6782C31.3791 47.18 31.2584 47.5833 31.0171 47.8882C30.7757 48.1931 30.4454 48.4154 30.0262 48.5552C29.6069 48.6949 29.1274 48.7648 28.5875 48.7648ZM32.1672 45.4872V46.6496H34.5777V45.4872H32.1672ZM36.2932 48.6504V47.5833H37.8558V43.7245H36.2837V42.9242C36.4933 42.9051 36.7346 42.8575 37.0078 42.7813C37.2873 42.6987 37.5667 42.6003 37.8462 42.4859C38.1257 42.3652 38.3766 42.2382 38.5989 42.1048H39.1896V47.5833H40.6474V48.6504H36.2932ZM41.969 47.5833V48.6504H46.3232V47.5833H44.8654V42.1048H44.2747C44.0524 42.2382 43.8015 42.3652 43.522 42.4859C43.2425 42.6003 42.963 42.6987 42.6835 42.7813C42.4104 42.8575 42.169 42.9051 41.9594 42.9242V43.7245H43.5315V47.5833H41.969Z" fill="currentColor"/>
</g>
<defs>
<clipPath id="clip0_201_2">
<rect width="64" height="64" fill="white"/>
</clipPath>
</defs>
</svg>
