<svg width="64" height="64" viewBox="0 0 64 64" fill="none" xmlns="http://www.w3.org/2000/svg">
<g clip-path="url(#clip0_201_25)">
<path fill-rule="evenodd" clip-rule="evenodd" d="M17.1111 8.5804C17.0642 8.5804 17.0177 8.57699 16.972 8.57034H13.6105V8.58035C13.2404 8.58035 12.9403 8.88039 12.9403 9.25046V61.3995C12.9403 61.7696 13.2404 62.0696 13.6105 62.0696H51.337C51.7071 62.0696 52.0071 61.7696 52.0071 61.3995V9.24047C52.0071 8.87039 51.7071 8.57034 51.337 8.57034H48.0257C47.9615 8.5835 47.8948 8.5904 47.8264 8.5904C47.758 8.5904 47.6913 8.5835 47.6271 8.57034H17.2419C17.2004 8.57705 17.1574 8.5804 17.1111 8.5804ZM51.337 6.63H48.7966V2.39933C48.7966 1.6592 48.4665 0.979084 47.8964 0.519004C47.3263 0.0689265 46.5762 -0.101103 45.8661 0.0589248L17.0765 6.63H13.6105C12.1702 6.63 11 7.80022 11 9.24047V61.3895C11 62.8297 12.1702 63.9999 13.6105 63.9999H51.337C52.7773 63.9999 53.9475 62.8297 53.9475 61.3895V9.24047C53.9475 7.80022 52.7773 6.63 51.337 6.63ZM46.8562 2.38933V6.63H25.7448L46.2961 1.93925C46.4862 1.89924 46.6162 1.97926 46.6862 2.02927C46.7462 2.07927 46.8562 2.1993 46.8562 2.38933ZM23.8654 32.9718C25.9959 35.4113 29.1276 36.9553 32.612 36.9553C36.1049 36.9553 39.2434 35.4067 41.3743 32.9579C41.4408 32.8979 41.4971 32.831 41.5432 32.7594C43.2165 30.7476 44.224 28.1624 44.224 25.3433C44.224 22.5052 43.1996 19.9011 41.5013 17.8813C41.4711 17.8395 41.4373 17.7997 41.3999 17.7623C39.2696 15.2966 36.122 13.7328 32.6171 13.7313H32.612C29.1246 13.7313 25.9905 15.278 23.8599 17.7212C23.7857 17.7863 23.7236 17.8601 23.6739 17.9397C22.0048 19.9511 21 22.5325 21 25.3433C21 28.1575 22.0072 30.7416 23.6799 32.7541C23.7292 32.834 23.7911 32.9076 23.8654 32.9718ZM40.6323 19.9452C41.5037 21.2352 42.0723 22.7455 42.2354 24.3732H38.723C38.6809 23.3642 38.5735 22.3954 38.4086 21.4815C39.2357 21.0557 39.9862 20.5374 40.6323 19.9452ZM42.2354 26.3135H38.723C38.6809 27.322 38.5736 28.2904 38.4088 29.204C39.2341 29.6273 39.9835 30.1484 40.6327 30.7409C41.5038 29.451 42.0724 27.9409 42.2354 26.3135ZM36.5728 22.249C36.6762 22.9193 36.7476 23.6292 36.7811 24.3732H28.4429C28.4764 23.6302 28.5477 22.9212 28.6508 22.2518C29.8974 22.6533 31.246 22.8629 32.612 22.8629C33.9811 22.8629 35.3327 22.6523 36.5728 22.249ZM26.8141 21.4889C26.65 22.4006 26.5431 23.3669 26.5011 24.3732H22.9887C23.1515 22.7477 23.7188 21.2393 24.5882 19.9504C25.2421 20.5457 25.9941 21.0655 26.8141 21.4889ZM26.5011 26.3135H22.9887C23.1519 27.9436 23.7221 29.456 24.5956 30.7473C25.2458 30.1539 25.9937 29.6355 26.8168 29.2127C26.6511 28.2966 26.5433 27.3252 26.5011 26.3135ZM36.5711 28.4491C36.6754 27.7755 36.7474 27.0617 36.7811 26.3135H28.4429C28.4767 27.0636 28.549 27.7791 28.6537 28.4541C31.1413 27.6653 34.0758 27.6636 36.5711 28.4491ZM25.8409 32.2415C26.6275 33.0137 27.5451 33.6531 28.5567 34.1225C28.0497 33.2852 27.6186 32.2892 27.2828 31.1715C26.7503 31.4834 26.2665 31.8426 25.8409 32.2415ZM29.0607 30.3593C31.2662 29.6025 33.938 29.6023 36.1636 30.3586C35.3639 33.2375 33.9383 35.0124 32.6149 35.015H32.612C31.2879 35.015 29.861 33.2399 29.0607 30.3593ZM37.9427 31.1664C38.4779 31.479 38.9633 31.8386 39.3882 32.2365C38.6005 33.011 37.6811 33.6521 36.6673 34.1225C37.1751 33.284 37.6068 32.2862 37.9427 31.1664ZM36.6673 16.5642C37.6793 17.0338 38.5971 17.6733 39.3839 18.4459C38.961 18.8444 38.4774 19.2061 37.9427 19.5202C37.6068 18.4004 37.1751 17.4027 36.6673 16.5642ZM32.612 15.6717C33.937 15.6717 35.365 17.4492 36.165 20.3332C33.9594 21.0933 31.2853 21.0956 29.0571 20.3402C29.8567 17.4521 31.2859 15.6717 32.612 15.6717ZM28.5567 16.5642C28.0477 17.4047 27.6152 18.4052 27.2789 19.5282C26.7469 19.2154 26.2597 18.855 25.8314 18.4545C26.6201 17.6781 27.541 17.0355 28.5567 16.5642ZM39.3246 55.3385H24.6754C24.2994 55.3385 24 54.9085 24 54.3684C24 53.8283 24.2994 53.3982 24.6754 53.3982H39.3246C39.7006 53.3982 40 53.8283 40 54.3684C40 54.9085 39.6936 55.3385 39.3246 55.3385ZM19 42.1143V48.6504H21.6678C22.3474 48.6504 22.9255 48.5329 23.4019 48.2979C23.8783 48.0629 24.2435 47.704 24.4976 47.2213C24.758 46.7385 24.8882 46.1256 24.8882 45.3824C24.8882 44.6329 24.758 44.0199 24.4976 43.5435C24.2435 43.0608 23.8783 42.7019 23.4019 42.4669C22.9255 42.2318 22.3474 42.1143 21.6678 42.1143H19ZM21.6583 47.4785H20.4196V43.2767H21.6583C21.9441 43.2767 22.1982 43.3212 22.4205 43.4101C22.6428 43.4927 22.827 43.6166 22.9731 43.7817C23.1192 43.9405 23.2304 44.1438 23.3066 44.3915C23.3828 44.6329 23.4209 44.9155 23.4209 45.2395V45.5253C23.4209 45.8492 23.3828 46.1351 23.3066 46.3828C23.2304 46.6242 23.1192 46.8274 22.9731 46.9926C22.827 47.1514 22.6428 47.2721 22.4205 47.3546C22.1982 47.4372 21.9441 47.4785 21.6583 47.4785ZM28.5875 48.7648C28.2064 48.7648 27.8443 48.7267 27.5013 48.6504C27.1583 48.5742 26.8534 48.4535 26.5866 48.2884C26.3262 48.1169 26.1198 47.9041 25.9673 47.65C25.8212 47.3896 25.7482 47.0752 25.7482 46.7068V46.6115C25.7482 46.5734 25.7513 46.5448 25.7577 46.5257H27.1678C27.1615 46.5448 27.1583 46.5702 27.1583 46.6019V46.6877C27.1583 46.891 27.2123 47.0625 27.3203 47.2022C27.4346 47.3419 27.5997 47.4468 27.8157 47.5166C28.0317 47.5865 28.2826 47.6214 28.5684 47.6214C28.7526 47.6214 28.9146 47.6119 29.0543 47.5928C29.2004 47.5674 29.3275 47.5357 29.4354 47.4976C29.5498 47.4531 29.6419 47.4023 29.7118 47.3451C29.788 47.288 29.842 47.2213 29.8737 47.145C29.9118 47.0688 29.9309 46.9831 29.9309 46.8878C29.9309 46.7163 29.8737 46.5765 29.7594 46.4686C29.6514 46.3606 29.499 46.2685 29.3021 46.1923C29.1115 46.116 28.8955 46.0462 28.6542 45.9826C28.4128 45.9191 28.1651 45.8556 27.911 45.7921C27.6569 45.7222 27.4092 45.6396 27.1678 45.5444C26.9264 45.4427 26.7105 45.322 26.5199 45.1823C26.3294 45.0426 26.1769 44.8647 26.0626 44.6487C25.9483 44.4328 25.8911 44.1723 25.8911 43.8675C25.8911 43.5435 25.9578 43.264 26.0912 43.029C26.2309 42.794 26.4246 42.6003 26.6724 42.4478C26.9201 42.2954 27.2059 42.1842 27.5299 42.1143C27.8538 42.0381 28.2064 42 28.5875 42C28.9432 42 29.2798 42.0381 29.5974 42.1143C29.915 42.1842 30.1945 42.2985 30.4359 42.4573C30.6772 42.6161 30.8646 42.8162 30.998 43.0576C31.1378 43.299 31.2076 43.5848 31.2076 43.9151V44.0294H29.8261V43.9532C29.8261 43.7817 29.7753 43.6356 29.6736 43.5149C29.572 43.3942 29.4291 43.299 29.2449 43.2291C29.0607 43.1592 28.8447 43.1243 28.597 43.1243C28.3302 43.1243 28.1015 43.1497 27.911 43.2005C27.7268 43.2513 27.5839 43.3275 27.4822 43.4292C27.387 43.5245 27.3393 43.6388 27.3393 43.7722C27.3393 43.9246 27.3933 44.0517 27.5013 44.1533C27.6156 44.2486 27.7681 44.3343 27.9586 44.4105C28.1555 44.4804 28.3747 44.5439 28.616 44.6011C28.8574 44.6583 29.1051 44.7218 29.3592 44.7917C29.6133 44.8615 29.861 44.9441 30.1024 45.0394C30.3438 45.1347 30.5597 45.2553 30.7503 45.4014C30.9408 45.5412 31.0933 45.7159 31.2076 45.9255C31.322 46.1351 31.3791 46.386 31.3791 46.6782C31.3791 47.18 31.2584 47.5833 31.0171 47.8882C30.7757 48.1931 30.4454 48.4154 30.0262 48.5552C29.6069 48.6949 29.1274 48.7648 28.5875 48.7648ZM32.1672 45.4872V46.6496H34.5777V45.4872H32.1672ZM38.3036 48.7648C37.9034 48.7648 37.5477 48.7076 37.2364 48.5933C36.9315 48.4789 36.6711 48.2979 36.4552 48.0502C36.2392 47.8025 36.0772 47.4753 35.9692 47.0688C35.8613 46.6559 35.8073 46.1541 35.8073 45.5634C35.8073 44.8965 35.8613 44.3343 35.9692 43.877C36.0772 43.4196 36.2328 43.0544 36.4361 42.7813C36.6457 42.5018 36.903 42.3017 37.2079 42.181C37.5127 42.0603 37.8653 42 38.2654 42C38.7482 42 39.1484 42.0889 39.466 42.2668C39.7899 42.4446 40.0281 42.6892 40.1805 43.0004C40.3393 43.3053 40.4187 43.661 40.4187 44.0675H39.1325C39.1325 43.8452 39.1007 43.6578 39.0372 43.5054C38.9737 43.3466 38.8752 43.2259 38.7418 43.1433C38.6084 43.0608 38.4401 43.0195 38.2369 43.0195C37.9383 43.0195 37.7097 43.0989 37.5509 43.2577C37.3984 43.4101 37.2936 43.6356 37.2364 43.9342C37.1856 44.2327 37.157 44.5947 37.1507 45.0203C37.2142 44.9568 37.3095 44.8806 37.4365 44.7917C37.5699 44.7027 37.7351 44.6265 37.932 44.563C38.1289 44.4931 38.3417 44.4582 38.5703 44.4582C39.0213 44.4582 39.3993 44.5503 39.7042 44.7345C40.0154 44.9123 40.2472 45.1601 40.3997 45.4777C40.5521 45.7953 40.6284 46.1637 40.6284 46.5829C40.6284 47.0339 40.5267 47.4245 40.3235 47.7548C40.1266 48.0788 39.8534 48.3297 39.5041 48.5075C39.1611 48.679 38.7609 48.7648 38.3036 48.7648ZM38.2559 47.7358C38.4909 47.7358 38.6847 47.6881 38.8371 47.5928C38.9896 47.4912 39.1039 47.3546 39.1801 47.1831C39.2563 47.0053 39.2945 46.8084 39.2945 46.5924C39.2945 46.3638 39.2563 46.1637 39.1801 45.9922C39.1039 45.8207 38.9896 45.6873 38.8371 45.592C38.6847 45.4904 38.4909 45.4396 38.2559 45.4396C38.0273 45.4396 37.8335 45.4904 37.6747 45.592C37.5223 45.6873 37.4079 45.8207 37.3317 45.9922C37.2555 46.1637 37.2174 46.3638 37.2174 46.5924C37.2174 46.8147 37.2555 47.0148 37.3317 47.1927C37.4079 47.3642 37.5223 47.4976 37.6747 47.5928C37.8335 47.6881 38.0273 47.7358 38.2559 47.7358ZM44.2366 47.2213V48.6504H45.5419V47.2213H46.3803V46.1637H45.5419V42.8956H44.9321C44.9003 43.0227 44.8559 43.1592 44.7987 43.3053C44.7479 43.4514 44.6907 43.6007 44.6272 43.7531C44.5637 43.8992 44.497 44.0453 44.4271 44.1914C44.3636 44.3311 44.3001 44.4614 44.2366 44.582V46.1637H42.3977C42.4993 46.0493 42.6232 45.881 42.7693 45.6587C42.9154 45.4364 43.0678 45.1823 43.2266 44.8965C43.3918 44.6043 43.5537 44.293 43.7125 43.9627C43.8713 43.6324 44.0111 43.299 44.1318 42.9623C44.2588 42.6257 44.3573 42.3049 44.4271 42H43.0646C42.9376 42.5272 42.7788 43.0354 42.5883 43.5245C42.4041 44.0136 42.204 44.4772 41.988 44.9155C41.772 45.3538 41.5402 45.7699 41.2925 46.1637V47.2213H44.2366Z" fill="currentColor"/>
</g>
<defs>
<clipPath id="clip0_201_25">
<rect width="64" height="64" fill="white"/>
</clipPath>
</defs>
</svg>
