<svg width="64" height="64" viewBox="0 0 64 64" fill="none" xmlns="http://www.w3.org/2000/svg">
<g clip-path="url(#clip0_201_35)">
<path fill-rule="evenodd" clip-rule="evenodd" d="M16.972 8.57034C17.0177 8.57699 17.0642 8.5804 17.1111 8.5804C17.1574 8.5804 17.2004 8.57705 17.2419 8.57034H47.6271C47.6913 8.5835 47.758 8.5904 47.8264 8.5904C47.8948 8.5904 47.9615 8.5835 48.0257 8.57034H51.337C51.7071 8.57034 52.0071 8.87039 52.0071 9.24047V61.3995C52.0071 61.7696 51.7071 62.0696 51.337 62.0696H13.6105C13.2404 62.0696 12.9403 61.7696 12.9403 61.3995V9.25046C12.9403 8.88039 13.2404 8.58035 13.6105 8.58035V8.57034H16.972ZM48.7966 6.63H51.337C52.7773 6.63 53.9475 7.80022 53.9475 9.24047V61.3895C53.9475 62.8297 52.7773 63.9999 51.337 63.9999H13.6105C12.1702 63.9999 11 62.8297 11 61.3895V9.24047C11 7.80022 12.1702 6.63 13.6105 6.63H17.0765L45.8661 0.0589248C46.5762 -0.101103 47.3263 0.0689265 47.8964 0.519004C48.4665 0.979084 48.7966 1.6592 48.7966 2.39933V6.63ZM46.8562 6.63V2.38933C46.8562 2.1993 46.7462 2.07927 46.6862 2.02927C46.6162 1.97926 46.4862 1.89924 46.2961 1.93925L25.7448 6.63H46.8562ZM32.612 36.9553C29.1276 36.9553 25.9959 35.4113 23.8654 32.9718C23.7911 32.9076 23.7292 32.834 23.6799 32.7541C22.0072 30.7416 21 28.1575 21 25.3433C21 22.5325 22.0048 19.9511 23.6739 17.9397C23.7236 17.8601 23.7857 17.7863 23.8599 17.7212C25.9905 15.278 29.1246 13.7313 32.612 13.7313H32.6171C36.122 13.7328 39.2696 15.2966 41.3999 17.7623C41.4373 17.7997 41.4711 17.8395 41.5013 17.8813C43.1996 19.9011 44.224 22.5052 44.224 25.3433C44.224 28.1624 43.2165 30.7476 41.5432 32.7594C41.4971 32.831 41.4408 32.8979 41.3743 32.9579C39.2434 35.4067 36.1049 36.9553 32.612 36.9553ZM42.2354 24.3732C42.0723 22.7455 41.5037 21.2352 40.6323 19.9452C39.9862 20.5374 39.2357 21.0557 38.4086 21.4815C38.5735 22.3954 38.6809 23.3642 38.723 24.3732H42.2354ZM38.723 26.3135H42.2354C42.0724 27.9409 41.5038 29.451 40.6327 30.7409C39.9835 30.1484 39.2341 29.6273 38.4088 29.204C38.5736 28.2904 38.6809 27.322 38.723 26.3135ZM36.7811 24.3732C36.7476 23.6292 36.6762 22.9193 36.5728 22.249C35.3327 22.6523 33.9811 22.8629 32.612 22.8629C31.246 22.8629 29.8974 22.6533 28.6508 22.2518C28.5477 22.9212 28.4764 23.6302 28.4429 24.3732H36.7811ZM26.5011 24.3732C26.5431 23.3669 26.65 22.4006 26.8141 21.4889C25.9941 21.0655 25.2421 20.5457 24.5882 19.9504C23.7188 21.2393 23.1515 22.7477 22.9887 24.3732H26.5011ZM22.9887 26.3135H26.5011C26.5433 27.3252 26.6511 28.2966 26.8168 29.2127C25.9937 29.6355 25.2458 30.1539 24.5956 30.7473C23.7221 29.456 23.1519 27.9436 22.9887 26.3135ZM36.7811 26.3135C36.7474 27.0617 36.6754 27.7755 36.5711 28.4491C34.0758 27.6636 31.1413 27.6653 28.6537 28.4541C28.549 27.7791 28.4767 27.0636 28.4429 26.3135H36.7811ZM28.5567 34.1225C27.5451 33.6531 26.6275 33.0137 25.8409 32.2415C26.2665 31.8426 26.7503 31.4834 27.2828 31.1715C27.6186 32.2892 28.0497 33.2852 28.5567 34.1225ZM36.1636 30.3586C33.938 29.6023 31.2662 29.6025 29.0607 30.3593C29.861 33.2399 31.2879 35.015 32.612 35.015H32.6149C33.9383 35.0124 35.3639 33.2375 36.1636 30.3586ZM39.3882 32.2365C38.9633 31.8386 38.4779 31.479 37.9427 31.1664C37.6068 32.2862 37.1751 33.284 36.6673 34.1225C37.6811 33.6521 38.6005 33.011 39.3882 32.2365ZM39.3839 18.4459C38.5971 17.6733 37.6793 17.0338 36.6673 16.5642C37.1751 17.4027 37.6068 18.4004 37.9427 19.5202C38.4774 19.2061 38.961 18.8444 39.3839 18.4459ZM36.165 20.3332C35.365 17.4492 33.937 15.6717 32.612 15.6717C31.2859 15.6717 29.8567 17.4521 29.0571 20.3402C31.2853 21.0956 33.9594 21.0933 36.165 20.3332ZM27.2789 19.5282C27.6152 18.4052 28.0477 17.4047 28.5567 16.5642C27.541 17.0355 26.6201 17.6781 25.8314 18.4545C26.2597 18.855 26.7469 19.2154 27.2789 19.5282ZM27.5013 48.6504C27.8443 48.7267 28.2064 48.7648 28.5875 48.7648C29.1274 48.7648 29.6069 48.6949 30.0262 48.5552C30.4454 48.4154 30.7757 48.1931 31.0171 47.8882C31.2584 47.5833 31.3791 47.18 31.3791 46.6782C31.3791 46.386 31.322 46.1351 31.2076 45.9255C31.0933 45.7159 30.9408 45.5412 30.7503 45.4014C30.5597 45.2553 30.3438 45.1347 30.1024 45.0394C29.861 44.9441 29.6133 44.8615 29.3592 44.7917C29.1051 44.7218 28.8574 44.6583 28.616 44.6011C28.3747 44.5439 28.1555 44.4804 27.9586 44.4105C27.7681 44.3343 27.6156 44.2486 27.5013 44.1533C27.3933 44.0517 27.3393 43.9246 27.3393 43.7722C27.3393 43.6388 27.387 43.5245 27.4822 43.4292C27.5839 43.3275 27.7268 43.2513 27.911 43.2005C28.1015 43.1497 28.3302 43.1243 28.597 43.1243C28.8447 43.1243 29.0607 43.1592 29.2449 43.2291C29.4291 43.299 29.572 43.3942 29.6736 43.5149C29.7753 43.6356 29.8261 43.7817 29.8261 43.9532V44.0294H31.2076V43.9151C31.2076 43.5848 31.1378 43.299 30.998 43.0576C30.8646 42.8162 30.6772 42.6161 30.4359 42.4573C30.1945 42.2985 29.915 42.1842 29.5974 42.1143C29.2798 42.0381 28.9432 42 28.5875 42C28.2064 42 27.8538 42.0381 27.5299 42.1143C27.2059 42.1842 26.9201 42.2954 26.6724 42.4478C26.4246 42.6003 26.2309 42.794 26.0912 43.029C25.9578 43.264 25.8911 43.5435 25.8911 43.8675C25.8911 44.1723 25.9483 44.4328 26.0626 44.6487C26.1769 44.8647 26.3294 45.0426 26.5199 45.1823C26.7105 45.322 26.9264 45.4427 27.1678 45.5444C27.4092 45.6396 27.6569 45.7222 27.911 45.7921C28.1651 45.8556 28.4128 45.9191 28.6542 45.9826C28.8955 46.0462 29.1115 46.116 29.3021 46.1923C29.499 46.2685 29.6514 46.3606 29.7594 46.4686C29.8737 46.5765 29.9309 46.7163 29.9309 46.8878C29.9309 46.9831 29.9118 47.0688 29.8737 47.145C29.842 47.2213 29.788 47.288 29.7118 47.3451C29.6419 47.4023 29.5498 47.4531 29.4354 47.4976C29.3275 47.5357 29.2004 47.5674 29.0543 47.5928C28.9146 47.6119 28.7526 47.6214 28.5684 47.6214C28.2826 47.6214 28.0317 47.5865 27.8157 47.5166C27.5997 47.4468 27.4346 47.3419 27.3203 47.2022C27.2123 47.0625 27.1583 46.891 27.1583 46.6877V46.6019C27.1583 46.5702 27.1615 46.5448 27.1678 46.5257H25.7577C25.7513 46.5448 25.7482 46.5734 25.7482 46.6115V46.7068C25.7482 47.0752 25.8212 47.3896 25.9673 47.65C26.1198 47.9041 26.3262 48.1169 26.5866 48.2884C26.8534 48.4535 27.1583 48.5742 27.5013 48.6504ZM19 48.6504V42.1143H21.6678C22.3474 42.1143 22.9255 42.2318 23.4019 42.4669C23.8783 42.7019 24.2435 43.0608 24.4976 43.5435C24.758 44.0199 24.8882 44.6329 24.8882 45.3824C24.8882 46.1256 24.758 46.7385 24.4976 47.2213C24.2435 47.704 23.8783 48.0629 23.4019 48.2979C22.9255 48.5329 22.3474 48.6504 21.6678 48.6504H19ZM20.4196 47.4785H21.6583C21.9441 47.4785 22.1982 47.4372 22.4205 47.3546C22.6428 47.2721 22.827 47.1514 22.9731 46.9926C23.1192 46.8274 23.2304 46.6242 23.3066 46.3828C23.3828 46.1351 23.4209 45.8492 23.4209 45.5253V45.2395C23.4209 44.9155 23.3828 44.6329 23.3066 44.3915C23.2304 44.1438 23.1192 43.9405 22.9731 43.7817C22.827 43.6166 22.6428 43.4927 22.4205 43.4101C22.1982 43.3212 21.9441 43.2767 21.6583 43.2767H20.4196V47.4785ZM39.3246 55.3385H24.6754C24.2994 55.3385 24 54.9085 24 54.3684C24 53.8283 24.2994 53.3982 24.6754 53.3982H39.3246C39.7006 53.3982 40 53.8283 40 54.3684C40 54.9085 39.6936 55.3385 39.3246 55.3385ZM32.1672 46.6496V45.4872H34.5777V46.6496H32.1672ZM36.7146 48.517C37.0767 48.6822 37.534 48.7648 38.0867 48.7648C38.6329 48.7648 39.0839 48.6822 39.4396 48.517C39.8017 48.3519 40.0684 48.1264 40.2399 47.8406C40.4178 47.5484 40.5067 47.2213 40.5067 46.8592C40.5067 46.4908 40.421 46.1795 40.2495 45.9255C40.078 45.665 39.8112 45.4586 39.4491 45.3062C39.7477 45.1283 39.9668 44.9155 40.1066 44.6678C40.2526 44.4201 40.3257 44.1438 40.3257 43.8389C40.3257 43.4832 40.2368 43.1687 40.0589 42.8956C39.8811 42.6161 39.6238 42.397 39.2872 42.2382C38.9569 42.0794 38.5567 42 38.0867 42C37.6103 42 37.2037 42.0794 36.8671 42.2382C36.5304 42.397 36.2764 42.6161 36.1049 42.8956C35.9334 43.1687 35.8476 43.4832 35.8476 43.8389C35.8476 44.1438 35.9143 44.4201 36.0477 44.6678C36.1874 44.9092 36.4097 45.122 36.7146 45.3062C36.3589 45.4586 36.0922 45.665 35.9143 45.9255C35.7428 46.1795 35.6571 46.4908 35.6571 46.8592C35.6571 47.2213 35.7428 47.5484 35.9143 47.8406C36.0922 48.1264 36.3589 48.3519 36.7146 48.517ZM38.8679 47.488C38.6837 47.6595 38.4233 47.7453 38.0867 47.7453C37.7436 47.7453 37.4769 47.6595 37.2863 47.488C37.1021 47.3165 37.01 47.0815 37.01 46.783C37.01 46.4717 37.1053 46.2335 37.2958 46.0684C37.4864 45.8969 37.75 45.8111 38.0867 45.8111C38.417 45.8111 38.6774 45.8969 38.8679 46.0684C39.0585 46.2335 39.1538 46.4717 39.1538 46.783C39.1538 47.0815 39.0585 47.3165 38.8679 47.488ZM38.7822 44.582C38.6043 44.7345 38.3725 44.8107 38.0867 44.8107C37.7881 44.8107 37.5531 44.7345 37.3816 44.582C37.2101 44.4296 37.1243 44.2073 37.1243 43.9151C37.1243 43.6229 37.2101 43.4006 37.3816 43.2481C37.5531 43.0894 37.7881 43.01 38.0867 43.01C38.3788 43.01 38.6107 43.0894 38.7822 43.2481C38.96 43.4006 39.049 43.6229 39.049 43.9151C39.049 44.2073 38.96 44.4296 38.7822 44.582ZM41.409 48.6504V48.3074C41.409 48.0216 41.4599 47.7612 41.5615 47.5261C41.6631 47.2911 41.8029 47.0752 41.9807 46.8783C42.1586 46.6813 42.3555 46.494 42.5714 46.3161C42.7874 46.1383 43.0097 45.9668 43.2384 45.8016C43.4988 45.6047 43.7434 45.411 43.972 45.2204C44.207 45.0299 44.3976 44.8266 44.5437 44.6106C44.6898 44.3883 44.7628 44.1438 44.7628 43.877C44.7628 43.7499 44.7311 43.6229 44.6676 43.4959C44.604 43.3688 44.5024 43.264 44.3627 43.1815C44.2293 43.0925 44.0483 43.0481 43.8196 43.0481C43.5846 43.0481 43.3908 43.0894 43.2384 43.1719C43.0859 43.2481 42.9684 43.3593 42.8859 43.5054C42.8096 43.6451 42.7715 43.8198 42.7715 44.0294V44.3724H41.4948C41.4884 44.3407 41.4821 44.2962 41.4757 44.239C41.4694 44.1819 41.4662 44.112 41.4662 44.0294C41.4662 43.5657 41.571 43.1846 41.7806 42.8861C41.9966 42.5876 42.2856 42.3652 42.6477 42.2191C43.0161 42.073 43.4321 42 43.8958 42C44.315 42 44.6644 42.0603 44.9439 42.181C45.2297 42.2954 45.4584 42.451 45.6299 42.6479C45.8014 42.8385 45.9221 43.0481 45.9919 43.2767C46.0682 43.499 46.1063 43.715 46.1063 43.9246C46.1063 44.2232 46.0523 44.4963 45.9443 44.744C45.8363 44.9917 45.6902 45.2236 45.506 45.4396C45.3218 45.6555 45.1027 45.8651 44.8486 46.0684C44.5945 46.2653 44.3246 46.4622 44.0387 46.6591C43.8926 46.7607 43.7529 46.8592 43.6195 46.9545C43.4925 47.0498 43.3813 47.1419 43.286 47.2308C43.1971 47.3134 43.1272 47.3959 43.0764 47.4785H46.1539V48.6504H41.409Z" fill="white"/>
</g>
<defs>
<clipPath id="clip0_201_35">
<rect width="64" height="64" fill="white"/>
</clipPath>
</defs>
</svg>
